<mxfile host="Electron" modified="2023-12-11T14:21:26.569Z" agent="Mozilla/5.0 (X11; Linux x86_64) AppleWebKit/537.36 (KHTML, like Gecko) draw.io/22.1.2 Chrome/114.0.5735.289 Electron/25.9.4 Safari/537.36" etag="cx7F3tos_DaG-7bh4oIL" version="22.1.2" type="device">
  <diagram name="Page-1" id="cdRQ526Jkao1qlJUCw19">
    <mxGraphModel dx="1364" dy="843" grid="1" gridSize="10" guides="1" tooltips="1" connect="1" arrows="1" fold="1" page="1" pageScale="1" pageWidth="827" pageHeight="1169" math="0" shadow="0">
      <root>
        <mxCell id="0" />
        <mxCell id="1" parent="0" />
        <mxCell id="4VQpeNJrzAtvyB_kZWIC-1" value="User" style="shape=umlActor;verticalLabelPosition=bottom;verticalAlign=top;html=1;outlineConnect=0;" parent="1" vertex="1">
          <mxGeometry x="50" y="426" width="80" height="150" as="geometry" />
        </mxCell>
        <mxCell id="4VQpeNJrzAtvyB_kZWIC-5" value="" style="rounded=0;whiteSpace=wrap;html=1;" parent="1" vertex="1">
          <mxGeometry x="239" y="126" width="371" height="654" as="geometry" />
        </mxCell>
        <mxCell id="4VQpeNJrzAtvyB_kZWIC-6" value="&lt;font style=&quot;font-size: 16px;&quot;&gt;&lt;b&gt;Eye Health Management Application Eye Testing Tools&lt;br&gt;&lt;/b&gt;&lt;/font&gt;" style="text;html=1;strokeColor=none;fillColor=none;align=center;verticalAlign=middle;whiteSpace=wrap;rounded=0;" parent="1" vertex="1">
          <mxGeometry x="290" y="136" width="280" height="40" as="geometry" />
        </mxCell>
        <mxCell id="BrQOBhn-TSS67xyMG39H-13" value="Perform eye vision test" style="ellipse;whiteSpace=wrap;html=1;" parent="1" vertex="1">
          <mxGeometry x="275" y="206" width="100" height="50" as="geometry" />
        </mxCell>
        <mxCell id="BrQOBhn-TSS67xyMG39H-14" value="Store eye test results" style="ellipse;whiteSpace=wrap;html=1;" parent="1" vertex="1">
          <mxGeometry x="275" y="311" width="100" height="50" as="geometry" />
        </mxCell>
        <mxCell id="BrQOBhn-TSS67xyMG39H-15" value="Informative feedback on eye test" style="ellipse;whiteSpace=wrap;html=1;" parent="1" vertex="1">
          <mxGeometry x="495" y="270" width="100" height="60" as="geometry" />
        </mxCell>
        <mxCell id="BrQOBhn-TSS67xyMG39H-16" value="Display test score at the end of test." style="ellipse;whiteSpace=wrap;html=1;" parent="1" vertex="1">
          <mxGeometry x="280" y="391" width="90" height="70" as="geometry" />
        </mxCell>
        <mxCell id="BrQOBhn-TSS67xyMG39H-17" value="View past eye test results" style="ellipse;whiteSpace=wrap;html=1;" parent="1" vertex="1">
          <mxGeometry x="282.5" y="476" width="85" height="50" as="geometry" />
        </mxCell>
        <mxCell id="BrQOBhn-TSS67xyMG39H-18" value="Show daily/weekly averages on test scores on a graph" style="ellipse;whiteSpace=wrap;html=1;" parent="1" vertex="1">
          <mxGeometry x="265" y="571" width="120" height="80" as="geometry" />
        </mxCell>
        <mxCell id="BrQOBhn-TSS67xyMG39H-19" value="&amp;lt;&amp;lt;extend&amp;gt;&amp;gt;" style="html=1;verticalAlign=bottom;labelBackgroundColor=none;endArrow=open;endFill=0;dashed=1;rounded=0;entryX=0;entryY=0.5;entryDx=0;entryDy=0;exitX=1;exitY=0;exitDx=0;exitDy=0;" parent="1" source="BrQOBhn-TSS67xyMG39H-16" target="BrQOBhn-TSS67xyMG39H-15" edge="1">
          <mxGeometry width="160" relative="1" as="geometry">
            <mxPoint x="325" y="361" as="sourcePoint" />
            <mxPoint x="325" y="521" as="targetPoint" />
          </mxGeometry>
        </mxCell>
        <mxCell id="BrQOBhn-TSS67xyMG39H-20" value="&amp;lt;&amp;lt;include&amp;gt;&amp;gt;" style="html=1;verticalAlign=bottom;labelBackgroundColor=none;endArrow=open;endFill=0;dashed=1;rounded=0;exitX=0.5;exitY=1;exitDx=0;exitDy=0;entryX=0.5;entryY=0;entryDx=0;entryDy=0;" parent="1" source="BrQOBhn-TSS67xyMG39H-14" target="BrQOBhn-TSS67xyMG39H-16" edge="1">
          <mxGeometry width="160" relative="1" as="geometry">
            <mxPoint x="385" y="391" as="sourcePoint" />
            <mxPoint x="545" y="391" as="targetPoint" />
          </mxGeometry>
        </mxCell>
        <mxCell id="BrQOBhn-TSS67xyMG39H-21" value="&amp;lt;&amp;lt;include&amp;gt;&amp;gt;" style="html=1;verticalAlign=bottom;labelBackgroundColor=none;endArrow=open;endFill=0;dashed=1;rounded=0;exitX=0.5;exitY=1;exitDx=0;exitDy=0;" parent="1" source="BrQOBhn-TSS67xyMG39H-13" target="BrQOBhn-TSS67xyMG39H-14" edge="1">
          <mxGeometry width="160" relative="1" as="geometry">
            <mxPoint x="305" y="221" as="sourcePoint" />
            <mxPoint x="465" y="221" as="targetPoint" />
          </mxGeometry>
        </mxCell>
        <mxCell id="BrQOBhn-TSS67xyMG39H-23" value="&amp;lt;&amp;lt;include&amp;gt;&amp;gt;" style="html=1;verticalAlign=bottom;labelBackgroundColor=none;endArrow=open;endFill=0;dashed=1;rounded=0;exitX=0.5;exitY=1;exitDx=0;exitDy=0;entryX=0.5;entryY=0;entryDx=0;entryDy=0;" parent="1" source="BrQOBhn-TSS67xyMG39H-17" target="BrQOBhn-TSS67xyMG39H-18" edge="1">
          <mxGeometry width="160" relative="1" as="geometry">
            <mxPoint x="515" y="221" as="sourcePoint" />
            <mxPoint x="675" y="221" as="targetPoint" />
          </mxGeometry>
        </mxCell>
        <mxCell id="BrQOBhn-TSS67xyMG39H-26" value="" style="endArrow=none;html=1;rounded=0;exitX=1;exitY=0.3333333333333333;exitDx=0;exitDy=0;exitPerimeter=0;entryX=0;entryY=0.5;entryDx=0;entryDy=0;" parent="1" source="4VQpeNJrzAtvyB_kZWIC-1" target="BrQOBhn-TSS67xyMG39H-13" edge="1">
          <mxGeometry width="50" height="50" relative="1" as="geometry">
            <mxPoint x="200" y="606" as="sourcePoint" />
            <mxPoint x="250" y="556" as="targetPoint" />
          </mxGeometry>
        </mxCell>
        <mxCell id="BrQOBhn-TSS67xyMG39H-27" value="Database" style="shape=umlActor;verticalLabelPosition=bottom;verticalAlign=top;html=1;outlineConnect=0;" parent="1" vertex="1">
          <mxGeometry x="700" y="206" width="80" height="150" as="geometry" />
        </mxCell>
        <mxCell id="BrQOBhn-TSS67xyMG39H-33" value="" style="endArrow=none;html=1;rounded=0;exitX=1;exitY=0.5;exitDx=0;exitDy=0;entryX=0;entryY=0.3333333333333333;entryDx=0;entryDy=0;entryPerimeter=0;" parent="1" source="BrQOBhn-TSS67xyMG39H-14" target="BrQOBhn-TSS67xyMG39H-27" edge="1">
          <mxGeometry width="50" height="50" relative="1" as="geometry">
            <mxPoint x="520" y="646" as="sourcePoint" />
            <mxPoint x="720" y="446" as="targetPoint" />
            <Array as="points">
              <mxPoint x="530" y="520" />
            </Array>
          </mxGeometry>
        </mxCell>
        <mxCell id="BrQOBhn-TSS67xyMG39H-34" value="App Service" style="shape=umlActor;verticalLabelPosition=bottom;verticalAlign=top;html=1;outlineConnect=0;" parent="1" vertex="1">
          <mxGeometry x="700" y="439" width="80" height="150" as="geometry" />
        </mxCell>
        <mxCell id="BrQOBhn-TSS67xyMG39H-36" value="" style="endArrow=none;html=1;rounded=0;entryX=0;entryY=0.3333333333333333;entryDx=0;entryDy=0;entryPerimeter=0;exitX=1;exitY=0.5;exitDx=0;exitDy=0;" parent="1" source="BrQOBhn-TSS67xyMG39H-15" target="BrQOBhn-TSS67xyMG39H-34" edge="1">
          <mxGeometry width="50" height="50" relative="1" as="geometry">
            <mxPoint x="680" y="776" as="sourcePoint" />
            <mxPoint x="730" y="726" as="targetPoint" />
          </mxGeometry>
        </mxCell>
        <mxCell id="BrQOBhn-TSS67xyMG39H-37" value="" style="endArrow=none;html=1;rounded=0;entryX=1;entryY=0.3333333333333333;entryDx=0;entryDy=0;entryPerimeter=0;exitX=0;exitY=0.5;exitDx=0;exitDy=0;" parent="1" source="BrQOBhn-TSS67xyMG39H-17" target="4VQpeNJrzAtvyB_kZWIC-1" edge="1">
          <mxGeometry width="50" height="50" relative="1" as="geometry">
            <mxPoint x="140" y="696" as="sourcePoint" />
            <mxPoint x="190" y="646" as="targetPoint" />
          </mxGeometry>
        </mxCell>
        <mxCell id="BrQOBhn-TSS67xyMG39H-38" value="Filter test scores based on daily/weekly averages" style="ellipse;whiteSpace=wrap;html=1;" parent="1" vertex="1">
          <mxGeometry x="420" y="650" width="120" height="70" as="geometry" />
        </mxCell>
        <mxCell id="BrQOBhn-TSS67xyMG39H-39" value="&amp;lt;&amp;lt;include&amp;gt;&amp;gt;" style="html=1;verticalAlign=bottom;labelBackgroundColor=none;endArrow=open;endFill=0;dashed=1;rounded=0;exitX=1;exitY=0.5;exitDx=0;exitDy=0;entryX=0.5;entryY=0;entryDx=0;entryDy=0;" parent="1" source="BrQOBhn-TSS67xyMG39H-18" target="BrQOBhn-TSS67xyMG39H-38" edge="1">
          <mxGeometry width="160" relative="1" as="geometry">
            <mxPoint x="435" y="601" as="sourcePoint" />
            <mxPoint x="595" y="601" as="targetPoint" />
          </mxGeometry>
        </mxCell>
        <mxCell id="BrQOBhn-TSS67xyMG39H-40" value="" style="endArrow=none;html=1;rounded=0;entryX=0;entryY=0.3333333333333333;entryDx=0;entryDy=0;entryPerimeter=0;exitX=1;exitY=0.5;exitDx=0;exitDy=0;" parent="1" source="BrQOBhn-TSS67xyMG39H-16" target="BrQOBhn-TSS67xyMG39H-34" edge="1">
          <mxGeometry width="50" height="50" relative="1" as="geometry">
            <mxPoint x="540" y="720" as="sourcePoint" />
            <mxPoint x="590" y="670" as="targetPoint" />
            <Array as="points">
              <mxPoint x="580" y="670" />
            </Array>
          </mxGeometry>
        </mxCell>
      </root>
    </mxGraphModel>
  </diagram>
</mxfile>
